<svg width="30" height="30" viewBox="0 0 30 30" fill="none" xmlns="http://www.w3.org/2000/svg">
<path d="M28.1966 0.000504092C27.731 0.011488 27.2888 0.206327 26.9665 0.542415L14.9996 12.5093L3.03277 0.542415C2.70069 0.201051 2.24455 0.00866969 1.7683 0.0091013C1.05176 0.00999093 0.407124 0.444749 0.13782 1.10876C-0.131484 1.77277 0.0281837 2.53374 0.541679 3.0335L12.5085 15.0004L0.541679 26.9672C0.0814649 27.4091 -0.103914 28.0652 0.0570219 28.6826C0.217958 29.2999 0.700079 29.782 1.31743 29.943C1.93479 30.1039 2.59091 29.9185 3.03276 29.4583L14.9996 17.4914L26.9665 29.4583C27.4083 29.9185 28.0645 30.1039 28.6818 29.943C29.2992 29.782 29.7813 29.2999 29.9422 28.6826C30.1032 28.0652 29.9178 27.4091 29.4576 26.9672L17.4907 15.0004L29.4576 3.0335C29.9823 2.53038 30.1441 1.75667 29.865 1.08545C29.5859 0.414229 28.9233 -0.016672 28.1966 0.000504092Z" fill="#FF5757"/>
</svg>
