<svg width="25" height="20" viewBox="0 0 25 20" fill="none" xmlns="http://www.w3.org/2000/svg">
<path d="M2.98695 19.8209V15.9465H7.91824C9.12053 15.9465 10.1725 15.7126 11.0743 15.2447C11.976 14.758 12.6711 14.0561 13.1595 13.139C13.6479 12.2219 13.8921 11.1364 13.8921 9.88235C13.8921 8.62834 13.6385 7.55214 13.1313 6.65374C12.6429 5.75535 11.9478 5.06283 11.0461 4.5762C10.1631 4.08957 9.12053 3.84626 7.91824 3.84626H2.84606V0H7.9746C9.47746 0 10.8582 0.243316 12.1169 0.729947C13.3943 1.19786 14.5027 1.88102 15.442 2.77941C16.4001 3.65909 17.1327 4.70722 17.6399 5.9238C18.1659 7.12166 18.4289 8.45053 18.4289 9.91043C18.4289 11.3516 18.1659 12.6805 17.6399 13.8971C17.1327 15.1136 16.4094 16.1618 15.4702 17.0414C14.5309 17.9211 13.4225 18.6043 12.1451 19.0909C10.8864 19.5775 9.51503 19.8209 8.03095 19.8209H2.98695ZM0 19.8209V0H4.42407V19.8209H0Z" fill="white"/>
<path d="M22 19.8209C21.2674 19.8209 20.6568 19.5682 20.1684 19.0628C19.6799 18.5575 19.4357 17.9492 19.4357 17.238C19.4357 16.4893 19.6799 15.8717 20.1684 15.385C20.6568 14.8797 21.2674 14.627 22 14.627C22.7514 14.627 23.362 14.8797 23.8316 15.385C24.32 15.8717 24.5643 16.4893 24.5643 17.238C24.5643 17.9492 24.32 18.5575 23.8316 19.0628C23.362 19.5682 22.7514 19.8209 22 19.8209Z" fill="white"/>
</svg>
